<svg id="Слой_3" data-name="Слой 3" xmlns="http://www.w3.org/2000/svg" viewBox="0 0 4862 2789"><defs><style>.cls-1{fill:none;stroke:#000;stroke-miterlimit:10;}</style></defs><title>Dorminotory-1Floor-1</title><path class="cls-1" d="M100.5,364c62,6,1116.5,0,1116.5,0V1713.5l621,1,698.5-.5v-65.5h90v57h1310V364.5h533v-142h88v-120h116v122h102v150h186v2373h-2292v143h-163v-141H100.5Z" transform="translate(-100 -102)"/><rect id="D1F1R6" class="cls-1" x="94.5" y="302.5" width="365" height="229"/><rect id="D1F1R7" class="cls-1" x="94.5" y="551.5" width="365" height="223"/><polygon id="D1F1R8" class="cls-1" points="94.5 797.5 459.5 797.5 459.5 1019.5 94.5 1021.5 94.5 797.5"/><rect class="cls-1" x="94.5" y="1038.5" width="365" height="218"/><rect id="D1F1R9" class="cls-1" x="94.5" y="1277.5" width="365" height="217"/><rect id="D1F1R10" class="cls-1" x="96.22" y="1521.5" width="359.28" height="215.06"/><rect id="D1F1R11" class="cls-1" x="94.5" y="1762.5" width="365" height="214"/><polygon class="cls-1" points="492.5 302.5 670.5 302.5 670.5 2010.5 1070.5 2010.5 1070.5 2061.5 1105.5 2061.5 1131.5 2061.5 1131.5 2051.5 2110.5 2053.5 2146.5 2053.5 2146.5 2042.5 3787.5 2038.5 3787.5 2051.5 3815.5 2051.5 3852.5 2051.5 3852.5 2010.5 3866.5 1995.5 4032.5 1995.5 4054.5 2006.5 4279.5 2006.5 4279.5 758.5 4271.5 750.5 4269.5 698.5 4414.5 698.5 4414.5 2006.5 4514.5 2006.5 4514.5 2185.5 4279.5 2185.5 3838.5 2185.5 3840.5 2171.5 3789.5 2171.5 3789.5 2185.5 2841.5 2185.5 2841.5 2175.5 2816.5 2171.5 2814.5 2185.5 2144.5 2185.5 1129.5 2185.5 1092.5 2185.5 1066.5 2185.5 1058.5 2198.5 53.5 2198.5 53.5 2010.5 492.5 2010.5 494.5 1981.5 492.5 302.5"/><path id="D1F1R1" class="cls-1" d="M800.5,404.5h380v229h-380Z" transform="translate(-100 -102)"/><path id="D1F1R2" class="cls-1" d="M800.5,653.5h380v223h-380Z" transform="translate(-100 -102)"/><rect id="D1F1R3" class="cls-1" x="700.5" y="797.5" width="380" height="222"/><rect id="D1F1R4" class="cls-1" x="705.58" y="1045.36" width="368.09" height="189.2"/><rect id="D1F1R5" class="cls-1" x="707.5" y="1272.5" width="373" height="217"/><rect class="cls-1" x="707" y="1529.5" width="139.5" height="462"/><rect class="cls-1" x="885.5" y="1529.5" width="181" height="462"/><rect id="D1F1R16" class="cls-1" x="1144.5" y="1650.5" width="220" height="370"/><rect id="D1F1R17" class="cls-1" x="1382.5" y="1650.5" width="233" height="370"/><rect id="D1F1R18" class="cls-1" x="1646.5" y="1650.5" width="233" height="370"/><rect id="D1F1R19" class="cls-1" x="1895.5" y="1650.5" width="219" height="370"/><rect id="D1F1R20" class="cls-1" x="2146.5" y="1650.5" width="231" height="370"/><rect id="D1F1R21" class="cls-1" x="2392.5" y="1650.5" width="163" height="360"/><rect id="D1F1R22" class="cls-1" x="2577.5" y="1635.5" width="225" height="375"/><rect id="D1F1R12" class="cls-1" x="53.5" y="2224.5" width="228" height="394"/><rect id="D1F1R13" class="cls-1" x="304.5" y="2224.5" width="229" height="394"/><rect id="D1F1R14" class="cls-1" x="574.5" y="2224.5" width="239" height="394"/><rect id="D1F1R15" class="cls-1" x="831.5" y="2224.5" width="235" height="394"/><rect class="cls-1" x="1127.5" y="2224.5" width="478" height="394"/><rect class="cls-1" x="1638.5" y="2224.5" width="476" height="394"/><rect class="cls-1" x="2146.5" y="2224.5" width="147" height="197"/><rect class="cls-1" x="2146.5" y="2435.5" width="246" height="171"/><rect class="cls-1" x="2423.5" y="2224.5" width="406" height="382"/><rect id="D1F1R25" class="cls-1" x="2849.5" y="2224.5" width="231" height="382"/><rect id="D1F1R26" class="cls-1" x="3092.5" y="2224.5" width="223" height="382"/><rect id="D1F1R27" class="cls-1" x="3347.5" y="2224.5" width="232" height="382"/><rect id="D1F1R28" class="cls-1" x="3598.5" y="2224.5" width="200" height="382"/><polygon id="D1F1R29" class="cls-1" points="3846.5 2224.5 4077.5 2224.5 4077.5 2606.5 3847.5 2606.5 3846.5 2224.5"/><rect id="D1F1R30" class="cls-1" x="4093.5" y="2224.5" width="237" height="382"/><rect id="D1F1R31" class="cls-1" x="4365.5" y="2224.5" width="222" height="382"/><rect id="D1F1R32" class="cls-1" x="4606.5" y="2224.5" width="200" height="382"/><rect class="cls-1" x="3860.5" y="302.5" width="188" height="233"/><rect class="cls-1" x="4075.5" y="302.5" width="169" height="233"/><rect class="cls-1" x="3860.5" y="551.5" height="209"/><rect class="cls-1" x="3860.5" y="551.5" width="384" height="209"/><rect class="cls-1" x="4093.5" y="1505.5" width="143" height="466"/><rect class="cls-1" x="3860.5" y="1250.5" width="386" height="225"/><rect class="cls-1" x="3860.5" y="788.5" width="394" height="448"/><rect class="cls-1" x="4571.5" y="310.5" width="247" height="241"/><rect class="cls-1" x="4571.5" y="572.5" width="247" height="233"/><rect class="cls-1" x="4571.5" y="823.5" width="247" height="245"/><rect class="cls-1" x="4571.5" y="1087.5" width="247" height="232"/><rect class="cls-1" x="4571.5" y="1334.5" width="237" height="218"/><rect class="cls-1" x="4571.5" y="1569.5" width="237" height="196"/><rect class="cls-1" x="4452.5" y="1528.5" width="107" height="237"/><rect class="cls-1" x="4452.5" y="302.5" width="107" height="1211"/><rect class="cls-1" x="4269.5" y="302.5" width="153" height="376"/><rect class="cls-1" x="4452.5" y="1775.5" width="354" height="196"/><rect class="cls-1" x="4530.5" y="2010.5" width="276" height="180"/><polygon class="cls-1" points="2418.72 2403.5 2577.5 2403.5 2577.5 2606.5 2423.5 2606.5 2418.72 2403.5"/><rect class="cls-1" x="2316.5" y="2224.5" width="76" height="197"/><rect class="cls-1" x="2829.5" y="1635.5" width="476" height="375"/><rect id="D1F1R23" class="cls-1" x="3347.5" y="1635.5" width="223" height="367"/><rect id="D1F1R24" class="cls-1" x="3586.5" y="1635.5" width="209" height="367"/><polygon class="cls-1" points="885.5 1518.5 1066.5 1991.5 1066.5 1518.5 885.5 1991.5 885.5 1518.5"/><polygon class="cls-1" points="3860.5 1505.5 4057.5 1505.5 4053.5 1971.5 3860.5 1971.5 3860.5 1505.5"/><line class="cls-1" x1="3860.5" y1="1513.5" x2="4053.5" y2="1971.5"/><line class="cls-1" x1="4057.5" y1="1505.5" x2="3860.5" y2="1971.5"/></svg>