<svg id="Слой_3" data-name="Слой 3" xmlns="http://www.w3.org/2000/svg" viewBox="0 0 9936 2789"><defs><style>.cls-1{fill:none;stroke:#000;stroke-miterlimit:10;}</style></defs><title>Dormitory-1Floor-2</title><line class="cls-1" x1="9134.5" y1="1471.5" x2="9287.5" y2="1924.5"/><line class="cls-1" x1="9287.5" y1="1471.5" x2="9134.5" y2="1936.5"/><line class="cls-1" x1="6125.5" y1="1464.5" x2="5929.5" y2="1946.5"/><line class="cls-1" x1="5929.5" y1="1464.5" x2="6115.5" y2="1946.5"/><rect id="D1F2R57" class="cls-1" x="6948.5" y="1595.5" width="184" height="382"/><rect id="D1F2R56" class="cls-1" x="6703.5" y="1595.5" width="215" height="382"/><rect id="D1F2R55" class="cls-1" x="6432.5" y="1595.5" width="235" height="382"/><rect id="D1F2R54" class="cls-1" x="6182.5" y="1595.5" width="233" height="382"/><rect id="D1F2R58" class="cls-1" x="7157.5" y="1605.5" width="208" height="372"/><rect id="D1F2R59" class="cls-1" x="7388.5" y="1595.5" width="206" height="382"/><rect id="D1F2R60" class="cls-1" x="7614.5" y="1595.5" width="229" height="382"/><rect id="D1F2R61" class="cls-1" x="7878.5" y="1595.5" width="222" height="382"/><rect id="D1F2R62" class="cls-1" x="8123.5" y="1595.5" width="227" height="372"/><rect id="D1F2R64" class="cls-1" x="8629.5" y="1595.5" width="223" height="372"/><rect id="D1F2R63" class="cls-1" x="8380.5" y="1595.5" width="227" height="372"/><rect class="cls-1" x="8917.5" y="1219.5" width="380" height="229"/><rect class="cls-1" x="8917.5" y="756.5" width="380" height="451"/><polygon class="cls-1" points="9093.5 1936.5 8924.5 1936.5 8924.5 1924.5 8913.5 1924.5 8913.5 1471.5 9105.5 1471.5 9105.5 1936.5 9093.5 1936.5"/><rect class="cls-1" x="9134.5" y="1471.5" width="153" height="453"/><rect class="cls-1" x="9500.5" y="1479.5" width="384" height="457"/><rect class="cls-1" x="9500.5" y="764.5" width="394" height="684"/><rect class="cls-1" x="9500.5" y="509.5" width="394" height="218"/><rect class="cls-1" x="9500.5" y="243.5" width="394" height="243"/><rect class="cls-1" x="8917.5" y="509.5" width="380" height="218"/><rect class="cls-1" x="8917.5" y="233.5" width="380" height="253"/><rect class="cls-1" x="9653.5" y="2181.5" width="231" height="378"/><rect class="cls-1" x="9412.5" y="2181.5" width="218" height="378"/><rect class="cls-1" x="9161.5" y="2181.5" width="222" height="388"/><rect class="cls-1" x="8913.5" y="2181.5" width="221" height="378"/><rect id="D1F2R69" class="cls-1" x="8636.5" y="2181.5" width="222" height="378"/><rect id="D1F2R68" class="cls-1" x="8393.5" y="2181.5" width="222" height="378"/><rect id="D1F2R67" class="cls-1" x="8135.5" y="2181.5" width="227" height="388"/><rect id="D1F2R66" class="cls-1" x="7882.5" y="2181.5" width="237" height="388"/><rect id="D1F2R65" class="cls-1" x="7173.5" y="2181.5" width="678" height="388"/><rect id="D1F2R53" class="cls-1" x="6950.5" y="2181.5" width="184" height="388"/><rect id="D1F2R52" class="cls-1" x="6699.5" y="2181.5" width="233" height="388"/><rect id="D1F2R51" class="cls-1" x="6436.5" y="2181.5" width="233" height="388"/><rect id="D1F2R50" class="cls-1" x="6176.5" y="2181.5" width="223" height="388"/><rect id="D1F2R49" class="cls-1" x="5880.5" y="2190.5" width="245" height="379"/><rect id="D1F2R48" class="cls-1" x="5602.5" y="2190.5" width="256" height="379"/><rect id="D1F2R47" class="cls-1" x="5341.5" y="2190.5" width="229" height="379"/><rect id="D1F2R46" class="cls-1" x="5090.5" y="2190.5" width="227" height="379"/><polygon class="cls-1" points="5090.5 1971.5 5535.5 1971.5 5535.5 1464.5 5553.5 1464.5 5553.5 1432.5 5539.5 1432.5 5539.5 735.5 5568.5 735.5 5568.5 713.5 5544.5 713.5 5544.5 229.5 5684.5 233.5 5684.5 703.5 5692.5 703.5 5692.5 735.5 5684.5 735.5 5684.5 1432.5 5680.5 1432.5 5678.5 1464.5 5684.5 1464.5 5684.5 1971.5 5919.5 1971.5 5919.5 1961.5 6113.5 1959.5 6113.5 2010.5 6174.5 2010.5 6185.5 2000.5 7126.5 2010.5 7126.5 2030.5 7171.5 2030.5 7171.5 2010.5 7849.5 2010.5 7849.5 2030.5 7890.5 2030.5 7890.5 2008.5 8842.5 2006.5 8842.5 2020.5 8911.5 2020.5 8911.5 1969.5 8928.5 1971.5 8928.5 1949.5 9091.5 1949.5 9091.5 1965.5 9328.5 1965.5 9328.5 1930.5 9312.5 1928.5 9316.5 1473.5 9328.5 1473.5 9328.5 1452.5 9328.5 245.5 9467.5 245.5 9467.5 1444.5 9455.5 1444.5 9455.5 1473.5 9467.5 1475.5 9467.5 1932.5 9453.5 1936.5 9453.5 1963.5 9884.5 1963.5 9884.5 2147.5 8911.5 2147.5 8907.5 2132.5 8852.5 2132.5 8850.5 2147.5 7886.5 2157.5 7882.5 2138.5 7847.5 2138.5 7849.5 2157.5 7177.5 2157.5 7175.5 2138.5 7130.5 2138.5 7132.5 2157.5 6182.5 2157.5 6178.5 2132.5 6125.5 2134.5 6125.5 2157.5 5090.5 2157.5 5090.5 1971.5"/><polygon class="cls-1" points="5929.5 1464.5 6125.5 1464.5 6115.5 1946.5 5929.5 1946.5 5929.5 1464.5"/><rect id="D1F2R45" class="cls-1" x="5721.5" y="1464.5" width="178" height="472"/><rect id="D1F2R44" class="cls-1" x="5733.5" y="1225.5" width="392" height="207"/><rect id="D1F2R43" class="cls-1" x="5733.5" y="982.5" width="392" height="221"/><rect id="D1F2R42" class="cls-1" x="5743.5" y="735.5" width="382" height="231"/><rect id="D1F2R41" class="cls-1" x="5752.5" y="480.5" width="373" height="233"/><rect id="D1F2R40" class="cls-1" x="5752.5" y="233.5" width="384" height="235"/><rect id="D1F2R39" class="cls-1" x="5090.5" y="1716.5" width="416" height="220"/><rect id="D1F2R38" class="cls-1" x="5090.5" y="1464.5" width="416" height="233"/><rect id="D1F2R37" class="cls-1" x="5102.5" y="1215.5" width="404" height="228"/><rect id="D1F2R36" class="cls-1" x="5102.5" y="982.5" width="404" height="213"/><rect id="D1F2R35" class="cls-1" x="5102.5" y="735.5" width="417" height="231"/><rect id="D1F2R34" class="cls-1" x="5102.5" y="492.5" width="417" height="221"/><rect id="D1F2R33" class="cls-1" x="5102.5" y="233.5" width="417" height="235"/><polygon class="cls-1" points="5033.5 203 6171 203 6171 1569.5 7433 1570 8870.5 1569.5 8870.5 202.5 9935.5 202.5 9935.5 2598.5 7114.5 2606.5 5033.5 2598.5 5033.5 203"/><path class="cls-1" d="M100.5,364c62,6,1116.5,0,1116.5,0V1713.5l621,1,698.5-.5v-65.5h90v57h1310V364.5h533v-142h88v-120h116v122h102v150h186v2373h-2292v143h-163v-141H100.5Z" transform="translate(-100 -102)"/><rect id="D1F1R6" class="cls-1" x="94.5" y="302.5" width="365" height="229"/><rect id="D1F1R7" class="cls-1" x="94.5" y="551.5" width="365" height="223"/><polygon id="D1F1R8" class="cls-1" points="94.5 797.5 459.5 797.5 459.5 1019.5 94.5 1021.5 94.5 797.5"/><rect class="cls-1" x="94.5" y="1038.5" width="365" height="218"/><rect id="D1F1R9" class="cls-1" x="94.5" y="1277.5" width="365" height="217"/><rect id="D1F1R10" class="cls-1" x="96.22" y="1521.5" width="359.28" height="215.06"/><rect id="D1F1R11" class="cls-1" x="94.5" y="1762.5" width="365" height="214"/><polygon class="cls-1" points="492.5 302.5 670.5 302.5 670.5 2010.5 1070.5 2010.5 1070.5 2061.5 1105.5 2061.5 1131.5 2061.5 1131.5 2051.5 2110.5 2053.5 2146.5 2053.5 2146.5 2042.5 3787.5 2038.5 3787.5 2051.5 3815.5 2051.5 3852.5 2051.5 3852.5 2010.5 3866.5 1995.5 4032.5 1995.5 4054.5 2006.5 4279.5 2006.5 4279.5 758.5 4271.5 750.5 4269.5 698.5 4414.5 698.5 4414.5 2006.5 4514.5 2006.5 4514.5 2185.5 4279.5 2185.5 3838.5 2185.5 3840.5 2171.5 3789.5 2171.5 3789.5 2185.5 2841.5 2185.5 2841.5 2175.5 2816.5 2171.5 2814.5 2185.5 2144.5 2185.5 1129.5 2185.5 1092.5 2185.5 1066.5 2185.5 1058.5 2198.5 53.5 2198.5 53.5 2010.5 492.5 2010.5 494.5 1981.5 492.5 302.5"/><path id="D1F1R1" class="cls-1" d="M800.5,404.5h380v229h-380Z" transform="translate(-100 -102)"/><path id="D1F1R2" class="cls-1" d="M800.5,653.5h380v223h-380Z" transform="translate(-100 -102)"/><rect id="D1F1R3" class="cls-1" x="700.5" y="797.5" width="380" height="222"/><rect id="D1F1R4" class="cls-1" x="705.58" y="1045.36" width="368.09" height="189.2"/><rect id="D1F1R5" class="cls-1" x="707.5" y="1272.5" width="373" height="217"/><rect class="cls-1" x="707" y="1529.5" width="139.5" height="462"/><rect class="cls-1" x="885.5" y="1529.5" width="181" height="462"/><rect id="D1F1R16" class="cls-1" x="1144.5" y="1650.5" width="220" height="370"/><rect id="D1F1R17" class="cls-1" x="1382.5" y="1650.5" width="233" height="370"/><rect id="D1F1R18" class="cls-1" x="1646.5" y="1650.5" width="233" height="370"/><rect id="D1F1R19" class="cls-1" x="1895.5" y="1650.5" width="219" height="370"/><rect id="D1F1R20" class="cls-1" x="2146.5" y="1650.5" width="231" height="370"/><rect id="D1F1R21" class="cls-1" x="2392.5" y="1650.5" width="163" height="360"/><rect id="D1F1R22" class="cls-1" x="2577.5" y="1635.5" width="225" height="375"/><rect id="D1F1R12" class="cls-1" x="53.5" y="2224.5" width="228" height="394"/><rect id="D1F1R13" class="cls-1" x="304.5" y="2224.5" width="229" height="394"/><rect id="D1F1R14" class="cls-1" x="574.5" y="2224.5" width="239" height="394"/><rect id="D1F1R15" class="cls-1" x="831.5" y="2224.5" width="235" height="394"/><rect class="cls-1" x="1127.5" y="2224.5" width="478" height="394"/><rect class="cls-1" x="1638.5" y="2224.5" width="476" height="394"/><rect class="cls-1" x="2146.5" y="2224.5" width="147" height="197"/><rect class="cls-1" x="2146.5" y="2435.5" width="246" height="171"/><rect class="cls-1" x="2423.5" y="2224.5" width="406" height="382"/><rect id="D1F1R25" class="cls-1" x="2849.5" y="2224.5" width="231" height="382"/><rect id="D1F1R26" class="cls-1" x="3092.5" y="2224.5" width="223" height="382"/><rect id="D1F1R27" class="cls-1" x="3347.5" y="2224.5" width="232" height="382"/><rect id="D1F1R28" class="cls-1" x="3598.5" y="2224.5" width="200" height="382"/><polygon id="D1F1R29" class="cls-1" points="3846.5 2224.5 4077.5 2224.5 4077.5 2606.5 3847.5 2606.5 3846.5 2224.5"/><rect id="D1F1R30" class="cls-1" x="4093.5" y="2224.5" width="237" height="382"/><rect id="D1F1R31" class="cls-1" x="4365.5" y="2224.5" width="222" height="382"/><rect id="D1F1R32" class="cls-1" x="4606.5" y="2224.5" width="200" height="382"/><rect class="cls-1" x="3860.5" y="302.5" width="188" height="233"/><rect class="cls-1" x="4075.5" y="302.5" width="169" height="233"/><rect class="cls-1" x="3860.5" y="551.5" height="209"/><rect class="cls-1" x="3860.5" y="551.5" width="384" height="209"/><rect class="cls-1" x="4093.5" y="1505.5" width="143" height="466"/><rect class="cls-1" x="3860.5" y="1250.5" width="386" height="225"/><rect class="cls-1" x="3860.5" y="788.5" width="394" height="448"/><rect class="cls-1" x="4571.5" y="310.5" width="247" height="241"/><rect class="cls-1" x="4571.5" y="572.5" width="247" height="233"/><rect class="cls-1" x="4571.5" y="823.5" width="247" height="245"/><rect class="cls-1" x="4571.5" y="1087.5" width="247" height="232"/><rect class="cls-1" x="4571.5" y="1334.5" width="237" height="218"/><rect class="cls-1" x="4571.5" y="1569.5" width="237" height="196"/><rect class="cls-1" x="4452.5" y="1528.5" width="107" height="237"/><rect class="cls-1" x="4452.5" y="302.5" width="107" height="1211"/><rect class="cls-1" x="4269.5" y="302.5" width="153" height="376"/><rect class="cls-1" x="4452.5" y="1775.5" width="354" height="196"/><rect class="cls-1" x="4530.5" y="2010.5" width="276" height="180"/><polygon class="cls-1" points="2418.72 2403.5 2577.5 2403.5 2577.5 2606.5 2423.5 2606.5 2418.72 2403.5"/><rect class="cls-1" x="2316.5" y="2224.5" width="76" height="197"/><rect class="cls-1" x="2829.5" y="1635.5" width="476" height="375"/><rect id="D1F1R23" class="cls-1" x="3347.5" y="1635.5" width="223" height="367"/><rect id="D1F1R24" class="cls-1" x="3586.5" y="1635.5" width="209" height="367"/><polygon class="cls-1" points="885.5 1518.5 1066.5 1991.5 1066.5 1518.5 885.5 1991.5 885.5 1518.5"/><polygon class="cls-1" points="3860.5 1505.5 4057.5 1505.5 4053.5 1971.5 3860.5 1971.5 3860.5 1505.5"/><line class="cls-1" x1="3860.5" y1="1513.5" x2="4053.5" y2="1971.5"/><line class="cls-1" x1="4057.5" y1="1505.5" x2="3860.5" y2="1971.5"/></svg>