<svg id="Слой_3" data-name="Слой 3" xmlns="http://www.w3.org/2000/svg" viewBox="0 0 4790 2614"><defs><style>.cls-1{fill:none;stroke:#1d1d1b;stroke-miterlimit:10;}</style></defs><title>Dormitory-2</title><polygon class="cls-1" points="78.88 115.27 1160.19 115.27 1160.19 1395.69 3714.91 1395.69 3714.91 133.65 4689.02 133.65 4689.02 2388.18 1074.42 2388.18 78.88 2388.18 78.88 115.27"/><polygon id="D2F1C2" class="cls-1" points="553.67 158.92 716.79 158.92 716.79 1775.53 1101.99 1775.53 1101.99 1824.54 1160.19 1824.54 3705.72 1824.54 3763.93 1824.54 3763.93 1781.66 3763.93 1738.77 3935.47 1738.77 3935.47 1775.53 4149.89 1775.53 4149.89 1738.77 4149.89 170.41 4281.61 170.41 4281.61 1775.53 4658.39 1775.53 4658.39 1950.13 780.35 1950.13 137.08 1950.13 137.08 1772.47 553.67 1772.47 553.67 158.92"/><rect id="D2F1R63" class="cls-1" x="1175.51" y="1423.26" width="211.36" height="365.99"/><rect id="D2F1R64" class="cls-1" x="1414.44" y="1423.26" width="205.24" height="365.99"/><rect id="D2F1R65" class="cls-1" x="1656.43" y="1423.26" width="214.43" height="365.99"/><rect id="D2F1R55" class="cls-1" x="752.78" y="1306" width="140.91" height="215.28"/><rect id="D2F1R54" class="cls-1" x="752.78" y="1054.14" width="358.4" height="215.79"/><rect id="D2F1R53" class="cls-1" x="752.78" y="614.57" width="358.4" height="417.92"/><rect id="D2F1WC6" class="cls-1" x="752.78" y="376.26" width="62.8" height="216.57"/><rect id="D2F1R51" class="cls-1" x="752.78" y="158.92" width="358.4" height="198"/><rect id="D2F1R52" class="cls-1" x="841.62" y="378.7" width="269.56" height="214.13"/><rect id="D2F2R47" class="cls-1" x="137.08" y="158.92" width="389.03" height="434.68"/><rect id="D2F1R48" class="cls-1" x="137.08" y="611.6" width="389.03" height="208.96"/><polygon id="D2F1R49" class="cls-1" points="137.08 844.44 526.11 844.44 526.11 1269.94 137.08 1270.06 137.08 844.44"/><rect id="D2F1R50" class="cls-1" x="137.08" y="1306" width="389.03" height="435.84"/><rect id="D2F1R57" class="cls-1" x="137.08" y="1986.89" width="462.55" height="363.83"/><rect id="D2F1R58" class="cls-1" x="628.31" y="1986.89" width="467.28" height="363.83"/><rect id="D2F1R59" class="cls-1" x="1156.87" y="1986.89" width="230" height="363.83"/><rect id="D2F1R60" class="cls-1" x="1397.41" y="1986.89" width="222.27" height="363.83"/><rect id="D2F1R66" class="cls-1" x="1886.14" y="1423.26" width="212.96" height="365.99"/><rect id="D2F1R61" class="cls-1" x="1644.07" y="1986.89" width="226.79" height="363.83"/><rect id="D2F1R62" class="cls-1" x="1886.14" y="1986.89" width="212.96" height="363.83"/><rect id="D2F1B4" class="cls-1" x="2137.4" y="1986.89" width="655.73" height="363.83"/><rect id="D2F1R74" class="cls-1" x="2817.63" y="1986.89" width="212.96" height="363.83"/><rect id="D2F1R75" class="cls-1" x="3055.1" y="1986.89" width="199.17" height="363.83"/><rect id="D2F1R76" class="cls-1" x="3283.38" y="1986.89" width="212.96" height="363.83"/><rect id="D2F1R77" class="cls-1" x="3516.26" y="1986.89" width="176.19" height="363.83"/><rect id="D2F1R78" class="cls-1" x="3759.86" y="1986.89" width="212.96" height="363.83"/><rect id="D2F1R79" class="cls-1" x="3985.07" y="1986.89" width="216.02" height="363.83"/><rect id="D2F1R80" class="cls-1" x="4221.01" y="1986.89" width="212.96" height="363.83"/><rect id="D2F1R81" class="cls-1" x="4450.82" y="1986.89" width="207.57" height="363.83"/><rect id="D2F1R67" class="cls-1" x="2123.61" y="1423.26" width="216.02" height="365.99"/><rect id="D2F1R68" class="cls-1" x="2359.55" y="1423.26" width="214.49" height="365.99"/><rect id="D2F1R69" class="cls-1" x="2590.89" y="1423.26" width="189.98" height="365.99"/><rect id="D2F1R70" class="cls-1" x="2809.97" y="1423.26" width="214.49" height="365.99"/><rect id="D2F1R71" class="cls-1" x="3045.91" y="1423.26" width="208.36" height="365.99"/><rect id="D2F1R72" class="cls-1" x="3283.38" y="1423.26" width="212.96" height="365.99"/><rect id="D2F1R73" class="cls-1" x="3519.32" y="1423.26" width="179.25" height="365.99"/><rect class="cls-1" x="3759.86" y="1306" width="185.38" height="422.71"/><rect id="D2F1R83" class="cls-1" x="3966.68" y="1307" width="144.01" height="210.35"/><rect id="D2F1R82" class="cls-1" x="3972.81" y="1537.2" width="137.89" height="203.77"/><rect id="D2F1R85" class="cls-1" x="3759.86" y="1079.11" width="350.84" height="197.64"/><rect id="D2F1R86" class="cls-1" x="3759.86" y="858.49" width="350.84" height="208.36"/><polygon id="D2F1R87" class="cls-1" points="3759.86 629.19 4110.7 629.19 4110.7 848.4 3759.86 846.75 3759.86 629.19"/><rect id="D2F1R88" class="cls-1" x="3759.86" y="394.28" width="278.84" height="216.02"/><rect id="D2F1R89" class="cls-1" x="3759.86" y="170.41" width="350.84" height="213.15"/><rect id="D2F1WC5" class="cls-1" x="4052.48" y="394.28" width="58.22" height="216.02"/><rect id="D2F1R90" class="cls-1" x="4302.21" y="170.41" width="356.18" height="223.87"/><rect id="D2F1R91" class="cls-1" x="4302.21" y="403.47" width="356.18" height="214.49"/><rect id="D2F1R92" class="cls-1" x="4302.21" y="648.6" width="356.18" height="209.89"/><rect id="D2F1WC4" class="cls-1" x="4302.21" y="1099.03" width="356.18" height="225.21"/><rect id="D2F1B5" class="cls-1" x="4302.21" y="1344.16" width="356.18" height="223.68"/><rect id="D2F1K3" class="cls-1" x="4302.21" y="1586.23" width="356.18" height="168.53"/><rect id="D2F1R56" class="cls-1" x="752.78" y="1534.96" width="140.91" height="208.92"/><rect class="cls-1" x="924.32" y="1306" width="186.86" height="437.88"/><rect id="D2F1R84" class="cls-1" x="4302.21" y="889.51" width="356.18" height="189.6"/></svg>