<svg id="Слой_3" data-name="Слой 3" xmlns="http://www.w3.org/2000/svg" viewBox="0 0 5047 3012"><defs><style>.cls-1{fill:none;stroke:#000;stroke-miterlimit:10;}</style></defs><title>Dormitory-1</title><path class="cls-1" d="M100.5,364c62,6,1116.5,0,1116.5,0V1713.5l621,1,698.5-.5v-65.5h90v57h1310V364.5h533v-142h88v-120h116v122h102v150h186v2373h-2292v143h-163v-141H100.5Z"/><rect id="D1F1R6" class="cls-1" x="194.5" y="404.5" width="365" height="229"/><rect id="D1F1R7" class="cls-1" x="194.5" y="653.5" width="365" height="223"/><polygon id="D1F1R8" class="cls-1" points="194.5 899.5 559.5 899.5 559.5 1121.5 194.5 1123.5 194.5 899.5"/><rect class="cls-1" x="194.5" y="1140.5" width="365" height="218"/><rect id="D1F1R9" class="cls-1" x="194.5" y="1379.5" width="365" height="217"/><rect id="D1F1R10" class="cls-1" x="196.22" y="1623.5" width="359.28" height="215.06"/><rect id="D1F1R11" class="cls-1" x="194.5" y="1864.5" width="365" height="214"/><polygon id="D1F1C1" class="cls-1" points="592.5 404.5 770.5 404.5 770.5 2112.5 1170.5 2112.5 1170.5 2163.5 1205.5 2163.5 1231.5 2163.5 1231.5 2153.5 2210.5 2155.5 2246.5 2155.5 2246.5 2144.5 3887.5 2140.5 3887.5 2153.5 3915.5 2153.5 3952.5 2153.5 3952.5 2112.5 3966.5 2097.5 4132.5 2097.5 4154.5 2108.5 4379.5 2108.5 4379.5 860.5 4371.5 852.5 4369.5 800.5 4514.5 800.5 4514.5 2108.5 4614.5 2108.5 4614.5 2287.5 4379.5 2287.5 3938.5 2287.5 3940.5 2273.5 3889.5 2273.5 3889.5 2287.5 2941.5 2287.5 2941.5 2277.5 2916.5 2273.5 2914.5 2287.5 2244.5 2287.5 1229.5 2287.5 1192.5 2287.5 1166.5 2287.5 1158.5 2300.5 153.5 2300.5 153.5 2112.5 592.5 2112.5 594.5 2083.5 592.5 404.5"/><path id="D1F1R1" class="cls-1" d="M800.5,404.5h380v229h-380Z"/><path id="D1F1R2" class="cls-1" d="M800.5,653.5h380v223h-380Z"/><rect id="D1F1R3" class="cls-1" x="800.5" y="899.5" width="380" height="222"/><rect id="D1F1R4" class="cls-1" x="805.58" y="1147.36" width="368.09" height="189.2"/><rect id="D1F1R5" class="cls-1" x="807.5" y="1374.5" width="373" height="217"/><rect id="D1F1K3" class="cls-1" x="807" y="1631.5" width="139.5" height="462"/><rect class="cls-1" x="985.5" y="1631.5" width="181" height="462"/><rect id="D1F1R16" class="cls-1" x="1244.5" y="1752.5" width="220" height="370"/><rect id="D1F1R17" class="cls-1" x="1482.5" y="1752.5" width="233" height="370"/><rect id="D1F1R18" class="cls-1" x="1746.5" y="1752.5" width="233" height="370"/><rect id="D1F1R19" class="cls-1" x="1995.5" y="1752.5" width="219" height="370"/><rect id="D1F1R20" class="cls-1" x="2246.5" y="1752.5" width="231" height="370"/><rect id="D1F1R21" class="cls-1" x="2492.5" y="1752.5" width="163" height="360"/><rect id="D1F1R22" class="cls-1" x="2677.5" y="1737.5" width="225" height="375"/><rect id="D1F1R12" class="cls-1" x="153.5" y="2326.5" width="228" height="394"/><rect id="D1F1R13" class="cls-1" x="404.5" y="2326.5" width="229" height="394"/><rect id="D1F1R14" class="cls-1" x="674.5" y="2326.5" width="239" height="394"/><rect id="D1F1R15" class="cls-1" x="931.5" y="2326.5" width="235" height="394"/><rect id="D1F1R82" class="cls-1" x="1227.5" y="2326.5" width="478" height="394"/><rect id="D1F1R81" class="cls-1" x="1738.5" y="2326.5" width="476" height="394"/><rect id="D1F1B1" class="cls-1" x="2246.5" y="2326.5" width="147" height="197"/><rect id="D1F1K2" class="cls-1" x="2246.5" y="2537.5" width="246" height="171"/><rect id="D1F1R70" class="cls-1" x="2523.5" y="2326.5" width="406" height="382"/><rect id="D1F1R25" class="cls-1" x="2949.5" y="2326.5" width="231" height="382"/><rect id="D1F1R26" class="cls-1" x="3192.5" y="2326.5" width="223" height="382"/><rect id="D1F1R27" class="cls-1" x="3447.5" y="2326.5" width="232" height="382"/><rect id="D1F1R28" class="cls-1" x="3698.5" y="2326.5" width="200" height="382"/><polygon id="D1F1R29" class="cls-1" points="3946.5 2326.5 4177.5 2326.5 4177.5 2708.5 3947.5 2708.5 3946.5 2326.5"/><rect id="D1F1R30" class="cls-1" x="4193.5" y="2326.5" width="237" height="382"/><rect id="D1F1R31" class="cls-1" x="4465.5" y="2326.5" width="222" height="382"/><rect id="D1F1R32" class="cls-1" x="4706.5" y="2326.5" width="200" height="382"/><rect id="D1F1R79" class="cls-1" x="3960.5" y="404.5" width="188" height="233"/><rect id="D1F1R80" class="cls-1" x="4175.5" y="404.5" width="169" height="233"/><rect id="D1F1K5" class="cls-1" x="3960.5" y="653.5" width="384" height="209"/><rect id="D1F1K4" class="cls-1" x="4193.5" y="1607.5" width="143" height="466"/><rect id="D1F1WC1" class="cls-1" x="3960.5" y="1352.5" width="386" height="225"/><rect id="D1F1K1" class="cls-1" x="3960.5" y="890.5" width="394" height="448"/><rect id="D1F1R73" class="cls-1" x="4671.5" y="412.5" width="247" height="241"/><rect id="D1F1R72" class="cls-1" x="4671.5" y="674.5" width="247" height="233"/><rect id="D1F1R74" class="cls-1" x="4671.5" y="925.5" width="247" height="245"/><rect id="D1F1R75" class="cls-1" x="4671.5" y="1189.5" width="247" height="232"/><rect id="D1F1R76" class="cls-1" x="4671.5" y="1436.5" width="237" height="218"/><rect id="D1F1R77" class="cls-1" x="4671.5" y="1671.5" width="237" height="196"/><rect id="D1F1WC4" class="cls-1" x="4552.5" y="1630.5" width="107" height="237"/><rect id="D1F1B2" class="cls-1" x="4552.5" y="404.5" width="107" height="1211"/><rect id="D1F1C2" class="cls-1" x="4369.5" y="404.5" width="153" height="376"/><rect id="D1F1R71" class="cls-1" x="4552.5" y="1877.5" width="354" height="196"/><rect id="D1F1WC3" class="cls-1" x="4630.5" y="2112.5" width="276" height="180"/><rect id="D1F1WC5" class="cls-1" x="2416.5" y="2326.5" width="76" height="197"/><rect id="D1F1R78" class="cls-1" x="2929.5" y="1737.5" width="476" height="375"/><rect id="D1F1R23" class="cls-1" x="3447.5" y="1737.5" width="223" height="367"/><rect id="D1F1R24" class="cls-1" x="3686.5" y="1737.5" width="209" height="367"/><polygon class="cls-1" points="985.5 1620.5 1166.5 2093.5 1166.5 1620.5 985.5 2093.5 985.5 1620.5"/><polygon class="cls-1" points="3960.5 1607.5 4157.5 1607.5 4153.5 2073.5 3960.5 2073.5 3960.5 1607.5"/><line class="cls-1" x1="3960.5" y1="1615.5" x2="4153.5" y2="2073.5"/><line class="cls-1" x1="4157.5" y1="1607.5" x2="3960.5" y2="2073.5"/></svg>