<svg id="Слой_3" data-name="Слой 3" xmlns="http://www.w3.org/2000/svg" viewBox="0 0 5279 2492"><defs><style>.cls-1{fill:none;stroke:#1d1d1b;stroke-miterlimit:10;}</style></defs><title>Dormitory-3</title><polygon class="cls-1" points="4827.02 125.98 5108.89 125.98 5108.89 853.13 5219.19 853.13 5219.19 2311.51 67.87 2311.51 67.87 873.55 255.79 873.55 255.79 775.51 317.06 775.51 317.06 714.23 345.66 714.23 345.66 669.3 554 669.3 554 849.04 4757.57 849.04 4757.57 685.64 4953.66 685.64 4953.66 505.89 4827.02 505.89 4827.02 125.98"/><rect id="D3F1R28" class="cls-1" x="149.57" y="926.66" width="263.49" height="179.74"/><rect id="D3F1B2" class="cls-1" x="431.45" y="926.66" width="343.15" height="379.91"/><rect id="D3F1R27" class="cls-1" x="149.57" y="1126.83" width="142.98" height="100.09"/><rect id="D3F1R26" class="cls-1" x="149.57" y="1246" width="142.98" height="215.81"/><rect id="D3F1C3" class="cls-1" x="149.57" y="1506.74" width="394.21" height="149.11"/><polygon id="D3F1C2" class="cls-1" points="568.3 1506.74 568.3 1655.85 1622.26 1655.85 1622.26 1639.51 1663.11 1637.47 1663.11 1655.85 1857.15 1655.85 1857.15 1631.34 1908.21 1631.34 1908.21 1655.85 3558.6 1655.85 3558.6 1506.74 1906.17 1506.74 1906.17 1531.26 1857.15 1531.26 1857.15 1506.74 1671.28 1506.74 1671.28 1541.47 1616.13 1541.47 1616.13 1506.74 568.3 1506.74"/><rect id="D3F1WC1" class="cls-1" x="790.94" y="934.83" width="259.4" height="371.74"/><rect id="D3F1B1" class="cls-1" x="1064.64" y="934.83" width="269.62" height="371.74"/><rect id="D3F1R25" class="cls-1" x="1350.6" y="934.83" width="267.57" height="526.98"/><rect id="D3F1R24" class="cls-1" x="1889.83" y="934.83" width="269.62" height="526.98"/><path id="D3F1R23" class="cls-1" d="M2167.62,1461.81v-527c22.47-2.55,269.1,0,269.1,0v527Z"/><rect id="D3F1R22" class="cls-1" x="2459.7" y="934.83" width="279.83" height="526.98"/><polygon id="D3F1K1" class="cls-1" points="306.85 1126.83 413.06 1126.83 413.06 1320.87 1334.26 1320.87 1334.26 1461.81 306.85 1461.81 306.85 1126.83"/><rect id="D3F1R16" class="cls-1" x="149.57" y="1713.04" width="320.68" height="537.19"/><rect id="D3F1R15" class="cls-1" x="490.68" y="1713.04" width="283.91" height="537.19"/><rect id="D3F1R14" class="cls-1" x="790.94" y="1713.04" width="273.7" height="537.19"/><rect id="D3F1R13" class="cls-1" x="1074.85" y="1713.04" width="267.57" height="537.19"/><rect id="D3F1R12" class="cls-1" x="1364.89" y="1713.04" width="261.45" height="537.19"/><polygon class="cls-1" points="1656.98 934.83 1857.15 1461.81 1857.15 1461.81 1656.98 1461.81 1656.98 934.83"/><rect class="cls-1" x="1671.28" y="1713.04" width="185.87" height="537.19"/><rect id="D3F1R11" class="cls-1" x="1906.17" y="1713.04" width="269.62" height="537.19"/><rect id="D3F1R10" class="cls-1" x="2190.09" y="1713.04" width="257.36" height="537.19"/><rect id="D3F1R9" class="cls-1" x="2486.26" y="1713.04" width="261.45" height="537.19"/><rect id="D3F1R21" class="cls-1" x="2755.87" y="934.83" width="257.36" height="526.98"/><rect id="D3F1R20" class="cls-1" x="3047.86" y="934.83" width="232.94" height="526.98"/><rect id="D3F1R19" class="cls-1" x="3295.11" y="934.83" width="263.49" height="526.98"/><rect id="D3F1R8" class="cls-1" x="2764.04" y="1713.04" width="261.45" height="537.19"/><rect id="D3F1R7" class="cls-1" x="3045.91" y="1713.04" width="234.89" height="537.19"/><rect id="D3F1R6" class="cls-1" x="3313.49" y="1713.04" width="245.11" height="537.19"/><polygon class="cls-1" points="1656.98 934.83 1857.15 1461.81 1656.98 1461.81 1857.15 934.83 1656.98 934.83"/><rect id="D3F1R5" class="cls-1" x="3758.77" y="1713.04" width="265.53" height="537.19"/><rect id="D3F1R18" class="cls-1" x="3748.55" y="934.83" width="238.98" height="526.98"/><rect class="cls-1" x="3574.94" y="934.83" width="129.26" height="526.98"/><rect id="D3F1R17" class="cls-1" x="4024.3" y="934.83" width="253.28" height="526.98"/><rect id="D3F1R4" class="cls-1" x="4053.27" y="1713.04" width="240.64" height="537.19"/><polygon class="cls-1" points="3574.94 934.83 3706.38 1461.81 3574.27 1461.81 3706.38 934.83 3574.94 934.83"/><polygon class="cls-1" points="4293.91 934.83 5090.51 934.83 5090.51 959.34 5164.04 959.34 5164.04 1218.74 5090.51 1219.09 5090.51 1461.81 4293.91 1461.81 4293.91 934.83"/><rect class="cls-1" x="3574.94" y="1713.04" width="138.89" height="537.19"/><rect id="D3F1R2" class="cls-1" x="4581.91" y="1713.04" width="241.02" height="537.19"/><rect id="D3F1R3" class="cls-1" x="4325.65" y="1713.04" width="233.8" height="537.19"/><polygon id="D3F1C1" class="cls-1" points="3593.32 1506.74 3593.32 1655.85 3695.45 1655.85 3695.45 1639.51 3728.13 1639.51 3728.13 1655.85 5090.51 1655.85 5090.51 1506.74 3740.38 1506.74 3740.38 1519 3695.45 1519 3695.45 1506.74 3593.32 1506.74"/><rect id="D3F1R1" class="cls-1" x="4849.49" y="1713.04" width="241.02" height="537.19"/><rect class="cls-1" x="1656.98" y="934.83" width="200.17" height="526.98"/></svg>
