<svg id="Слой_3" data-name="Слой 3" xmlns="http://www.w3.org/2000/svg" viewBox="0 0 5047 3012"><defs><style>.cls-1{fill:none;stroke:#000;stroke-miterlimit:10;}</style></defs><title>Dormitory-1</title><line class="cls-1" x1="1158.5" y1="1566.5" x2="962.5" y2="2048.5"/><line class="cls-1" x1="962.5" y1="1566.5" x2="1148.5" y2="2048.5"/><rect id="D1F2R57" class="cls-1" x="1981.5" y="1697.5" width="184" height="382"/><rect id="D1F2R56" class="cls-1" x="1736.5" y="1697.5" width="215" height="382"/><rect id="D1F2R55" class="cls-1" x="1465.5" y="1697.5" width="235" height="382"/><rect id="D1F2R54" class="cls-1" x="1215.5" y="1697.5" width="233" height="382"/><rect id="D1F2R58" class="cls-1" x="2190.5" y="1707.5" width="208" height="372"/><rect id="D1F2R59" class="cls-1" x="2421.5" y="1697.5" width="206" height="382"/><rect id="D1F2R60" class="cls-1" x="2647.5" y="1697.5" width="229" height="382"/><rect id="D1F2R61" class="cls-1" x="2911.5" y="1697.5" width="222" height="382"/><rect id="D1F2R62" class="cls-1" x="3156.5" y="1697.5" width="227" height="372"/><rect id="D1F2R64" class="cls-1" x="3662.5" y="1697.5" width="223" height="372"/><rect id="D1F2R63" class="cls-1" x="3413.5" y="1697.5" width="227" height="372"/><rect id="D1F2WC2" class="cls-1" x="3950.5" y="1321.5" width="380" height="229"/><rect id="D1F2R89" class="cls-1" x="3950.5" y="858.5" width="380" height="451"/><polygon class="cls-1" points="4126.5 2038.5 3957.5 2038.5 3957.5 2026.5 3946.5 2026.5 3946.5 1573.5 4138.5 1573.5 4138.5 2038.5 4126.5 2038.5"/><rect id="D1F2R88" class="cls-1" x="4167.5" y="1573.5" width="153" height="453"/><rect id="D1F2WC6" class="cls-1" x="4533.5" y="1581.5" width="384" height="457"/><rect id="D1F2B4" class="cls-1" x="4533.5" y="866.5" width="394" height="684"/><rect id="D1F2B3" class="cls-1" x="4533.5" y="611.5" width="394" height="218"/><rect id="D1F2K5" class="cls-1" x="4533.5" y="345.5" width="394" height="243"/><rect id="D1F2K4" class="cls-1" x="3950.5" y="611.5" width="380" height="218"/><rect id="D1F2R87" class="cls-1" x="3950.5" y="335.5" width="380" height="253"/><rect id="D1F2R86" class="cls-1" x="4686.5" y="2283.5" width="231" height="378"/><rect id="D1F2R85" class="cls-1" x="4445.5" y="2283.5" width="218" height="378"/><rect id="D1F2R84" class="cls-1" x="4194.5" y="2283.5" width="222" height="388"/><rect id="D1F2R83" class="cls-1" x="3946.5" y="2283.5" width="221" height="378"/><rect id="D1F2R69" class="cls-1" x="3669.5" y="2283.5" width="222" height="378"/><rect id="D1F2R68" class="cls-1" x="3426.5" y="2283.5" width="222" height="378"/><rect id="D1F2R67" class="cls-1" x="3168.5" y="2283.5" width="227" height="388"/><rect id="D1F2R66" class="cls-1" x="2915.5" y="2283.5" width="237" height="388"/><rect id="D1F2R65" class="cls-1" x="2206.5" y="2283.5" width="678" height="388"/><rect id="D1F2R53" class="cls-1" x="1983.5" y="2283.5" width="184" height="388"/><rect id="D1F2R52" class="cls-1" x="1732.5" y="2283.5" width="233" height="388"/><rect id="D1F2R51" class="cls-1" x="1469.5" y="2283.5" width="233" height="388"/><rect id="D1F2R50" class="cls-1" x="1209.5" y="2283.5" width="223" height="388"/><rect id="D1F2R49" class="cls-1" x="913.5" y="2292.5" width="245" height="379"/><rect id="D1F2R48" class="cls-1" x="635.5" y="2292.5" width="256" height="379"/><rect id="D1F2R47" class="cls-1" x="374.5" y="2292.5" width="229" height="379"/><rect id="D1F2R46" class="cls-1" x="123.5" y="2292.5" width="227" height="379"/><polygon id="D1F2C3" class="cls-1" points="123.5 2073.5 568.5 2073.5 568.5 1566.5 586.5 1566.5 586.5 1534.5 572.5 1534.5 572.5 837.5 601.5 837.5 601.5 815.5 577.5 815.5 577.5 331.5 717.5 335.5 717.5 805.5 725.5 805.5 725.5 837.5 717.5 837.5 717.5 1534.5 713.5 1534.5 711.5 1566.5 717.5 1566.5 717.5 2073.5 952.5 2073.5 952.5 2063.5 1146.5 2061.5 1146.5 2112.5 1207.5 2112.5 1218.5 2102.5 2159.5 2112.5 2159.5 2132.5 2204.5 2132.5 2204.5 2112.5 2882.5 2112.5 2882.5 2132.5 2923.5 2132.5 2923.5 2110.5 3875.5 2108.5 3875.5 2122.5 3944.5 2122.5 3944.5 2071.5 3961.5 2073.5 3961.5 2051.5 4124.5 2051.5 4124.5 2067.5 4361.5 2067.5 4361.5 2032.5 4345.5 2030.5 4349.5 1575.5 4361.5 1575.5 4361.5 1554.5 4361.5 347.5 4500.5 347.5 4500.5 1546.5 4488.5 1546.5 4488.5 1575.5 4500.5 1577.5 4500.5 2034.5 4486.5 2038.5 4486.5 2065.5 4917.5 2065.5 4917.5 2249.5 3944.5 2249.5 3940.5 2234.5 3885.5 2234.5 3883.5 2249.5 2919.5 2259.5 2915.5 2240.5 2880.5 2240.5 2882.5 2259.5 2210.5 2259.5 2208.5 2240.5 2163.5 2240.5 2165.5 2259.5 1215.5 2259.5 1211.5 2234.5 1158.5 2236.5 1158.5 2259.5 123.5 2259.5 123.5 2073.5"/><polygon class="cls-1" points="962.5 1566.5 1158.5 1566.5 1148.5 2048.5 962.5 2048.5 962.5 1566.5"/><rect id="D1F2R45" class="cls-1" x="754.5" y="1566.5" width="178" height="472"/><rect id="D1F2R44" class="cls-1" x="766.5" y="1327.5" width="392" height="207"/><rect id="D1F2R43" class="cls-1" x="766.5" y="1084.5" width="392" height="221"/><rect id="D1F2R42" class="cls-1" x="776.5" y="837.5" width="382" height="231"/><rect id="D1F2R41" class="cls-1" x="785.5" y="582.5" width="373" height="233"/><rect id="D1F2R40" class="cls-1" x="785.5" y="335.5" width="384" height="235"/><rect id="D1F2R39" class="cls-1" x="123.5" y="1818.5" width="416" height="220"/><rect id="D1F2R38" class="cls-1" x="123.5" y="1566.5" width="416" height="233"/><rect id="D1F2R37" class="cls-1" x="135.5" y="1317.5" width="404" height="228"/><rect id="D1F2R36" class="cls-1" x="135.5" y="1084.5" width="404" height="213"/><rect id="D1F2R35" class="cls-1" x="135.5" y="837.5" width="417" height="231"/><rect id="D1F2R34" class="cls-1" x="135.5" y="594.5" width="417" height="221"/><rect id="D1F2R33" class="cls-1" x="135.5" y="335.5" width="417" height="235"/><polygon class="cls-1" points="66.5 305 1204 305 1204 1671.5 2466 1672 3903.5 1671.5 3903.5 304.5 4968.5 304.5 4968.5 2700.5 2147.5 2708.5 66.5 2700.5 66.5 305"/><line class="cls-1" x1="3946.5" y1="1573.5" x2="4138.5" y2="2038.5"/><line class="cls-1" x1="4138.5" y1="1573.5" x2="3957.5" y2="2026.5"/></svg>